<?xml version="1.0" encoding="UTF-8"?>
<svg id="Layer_2" data-name="Layer 2" xmlns="http://www.w3.org/2000/svg" xmlns:xlink="http://www.w3.org/1999/xlink" viewBox="0 0 698.56 808.69">
  <defs>
    <style>
      .cls-1 {
        fill: none;
        stroke: #fff;
        stroke-miterlimit: 10;
      }

      .cls-2 {
        fill: url(#linear-gradient);
      }

      .cls-3 {
        fill: #fff;
      }
    </style>
    <linearGradient id="linear-gradient" x1="131.86" y1="364.88" x2="571.41" y2="364.88" gradientUnits="userSpaceOnUse">
      <stop offset="0" stop-color="#fff"/>
      <stop offset="1" stop-color="#f2f2f2"/>
    </linearGradient>
  </defs>
  <g id="Layer_1-2" data-name="Layer 1">
    <g>
      <g>
        <path class="cls-3" d="M274.32,782.78v-.98c0-2.44-.9-3.55-2.85-3.55h-1.62v8.17h1.39c2.18,0,3.08-1.13,3.08-3.65Z"/>
        <path class="cls-3" d="M271.59,790.59h-1.75v9.2h1.95c2.18,0,3.16-1.16,3.16-3.68v-1.67c0-2.65-.98-3.86-3.37-3.86Z"/>
        <path class="cls-3" d="M416.31,778.26h-1.85v8.89h1.85c2.18,0,3.16-1.16,3.16-3.68v-1.54c0-2.52-.98-3.68-3.16-3.68Z"/>
        <path class="cls-3" d="M449.88,768.64h-209.74c-.95,0-1.7.77-1.7,1.7v36.62c0,.95.75,1.72,1.7,1.72h209.74c.95,0,1.7-.77,1.7-1.72v-36.62c0-.93-.75-1.7-1.7-1.7ZM279.48,796.4c0,4.91-2.65,7.56-7.5,7.56h-6.66v-29.89h6.3c4.7,0,7.22,2.65,7.22,7.56v.57c0,3.34-.98,5.29-3.37,6.12v.08c2.83.85,4.01,3.08,4.01,6.99v1.03ZM299.09,790.46v13.49h-4.52v-13.52l-6.3-16.37h4.81l3.78,10.59h.1l3.62-10.59h4.7l-6.19,16.4ZM346.02,803.96h-4.52v-13h-5.4v13h-4.52v-29.89h4.52v12.59h5.4v-12.59h4.52v29.89ZM367.32,790.46v13.49h-4.52v-13.52l-6.27-16.37h4.78l3.8,10.59h.08l3.62-10.59h4.7l-6.19,16.4ZM398.06,784.01c0,4.91-2.65,7.56-7.51,7.56h-2v12.39h-4.52v-29.89h6.53c4.86,0,7.51,2.65,7.51,7.56v2.39ZM420.14,803.96l-3.57-12.62h-2.11v12.62h-4.52v-29.89h6.53c4.88,0,7.53,2.65,7.53,7.56v2.13c0,3.16-1.11,5.4-3.21,6.58l4.14,13.62h-4.78Z"/>
        <path class="cls-3" d="M390.38,778.26h-1.82v9.15h1.82c2.18,0,3.16-1.16,3.16-3.68v-1.8c0-2.52-.98-3.68-3.16-3.68Z"/>
      </g>
      <g>
        <path class="cls-3" d="M70.41,285.36c-1.28,4.95-3.84,8.54-7.71,10.77-3.87,2.23-8.57,2.63-14.12,1.19l-31.58-8.13c-6.64-1.71-11.38-4.33-14.23-7.87-2.85-3.54-3.51-8.27-1.98-14.21.83-3.24,2.17-5.97,4.02-8.19s4.14-3.75,6.88-4.6c2.75-.84,5.92-.8,9.52.13l11.83,3.04-3.5,13.61-10.11-2.61c-2.04-.52-3.49-.62-4.34-.29-.84.34-1.41,1.05-1.69,2.14-.33,1.27-.09,2.24.72,2.92.81.68,1.97,1.21,3.51,1.61l34.26,8.82c1.89.49,3.3.55,4.22.2.92-.36,1.52-1.05,1.78-2.1.3-1.16.03-2.11-.8-2.84-.84-.73-2.02-1.29-3.55-1.68l-12.33-3.17,3.54-13.76,12.95,3.33c6.01,1.55,9.99,4.19,11.92,7.92s2.19,8.32.79,13.76Z"/>
        <path class="cls-3" d="M80.57,250.65l-64.08-29.82,9.15-19.66c1.53-3.28,3.42-5.41,5.7-6.39s4.88-1.13,7.83-.45c2.95.68,6.22,1.86,9.84,3.54,3.49,1.62,6.08,3.37,7.76,5.23,1.68,1.86,2.34,4.2,2,7.02,1.35-1.82,3.01-2.77,4.98-2.84,1.97-.08,4.21.48,6.74,1.65l24.25,11.28-5.88,12.63-25.08-11.67c-1.87-.87-3.2-1.03-4.01-.47-.81.56-1.6,1.68-2.39,3.39l29.23,13.6-6.03,12.96ZM46.3,218.84l1.44-3.09c.83-1.77-.69-3.56-4.55-5.35-2.5-1.16-4.23-1.73-5.19-1.7s-1.69.57-2.18,1.64l-1.39,2.99,11.87,5.52Z"/>
        <path class="cls-3" d="M114.77,190.22c-3.28,4.6-7.18,7.12-11.69,7.57-4.52.45-9.4-1.2-14.65-4.95l-27.33-19.5c-4.93-3.51-7.81-7.38-8.64-11.62-.83-4.23.41-8.66,3.72-13.3,3.31-4.64,7.1-7.26,11.37-7.85,4.27-.59,8.86.87,13.79,4.39l27.33,19.5c5.25,3.75,8.4,7.83,9.45,12.24,1.04,4.41-.08,8.92-3.35,13.52ZM104.25,182.57c1.24-1.74.18-3.82-3.2-6.23l-28.09-20.03c-2.83-2.02-4.85-2.18-6.06-.48-1.37,1.92-.61,3.91,2.29,5.98l28.05,20.01c1.79,1.28,3.22,1.97,4.31,2.09,1.08.12,1.98-.33,2.7-1.33Z"/>
        <path class="cls-3" d="M149.68,149.81c-4.64,4.49-9.1,6.57-13.38,6.24-4.28-.33-8.86-3.01-13.74-8.05l-4.8-4.96,10.04-9.72,6.14,6.35c1.13,1.17,2.2,1.92,3.2,2.24s1.94.05,2.83-.81c.92-.89,1.31-1.78,1.13-2.66-.16-.88-.84-1.94-2.03-3.17-1.51-1.56-2.92-2.71-4.25-3.46-1.32-.75-2.82-1.23-4.5-1.45-1.68-.22-3.81-.31-6.39-.28l-8.75.08c-6.52.08-11.77-1.95-15.77-6.08-4.19-4.33-6.38-8.6-6.57-12.82-.18-4.22,1.63-8.17,5.44-11.85,4.65-4.5,9.16-6.46,13.51-5.87,4.35.59,8.98,3.42,13.87,8.48l-10.34,9.99-3.37-3.49c-.67-.69-1.39-1.04-2.16-1.04-.76,0-1.49.32-2.16.97-.81.78-1.18,1.58-1.12,2.4s.44,1.58,1.12,2.29c.69.71,1.63,1.3,2.82,1.75,1.18.45,2.86.67,5.04.65l11.3-.04c2.25-.02,4.47.12,6.66.41,2.18.29,4.37.97,6.55,2.04,2.19,1.07,4.43,2.79,6.72,5.16,4.61,4.77,7.35,9.36,8.2,13.77.86,4.4-.9,8.72-5.27,12.95Z"/>
        <path class="cls-3" d="M189.8,117.65c-5.37,3.58-10.13,4.83-14.29,3.74-4.15-1.09-8.18-4.55-12.07-10.38l-3.84-5.74,11.62-7.76,4.91,7.35c.91,1.36,1.82,2.28,2.75,2.77.92.49,1.9.4,2.93-.29,1.07-.71,1.6-1.52,1.6-2.42s-.48-2.06-1.44-3.48c-1.2-1.8-2.39-3.19-3.56-4.17-1.16-.98-2.56-1.72-4.17-2.24-1.62-.52-3.69-.99-6.23-1.42l-8.62-1.48c-6.43-1.09-11.23-4.03-14.43-8.81-3.35-5.01-4.73-9.61-4.16-13.79s3.06-7.74,7.47-10.69c5.38-3.6,10.16-4.72,14.34-3.36,4.18,1.36,8.23,4.97,12.13,10.83l-11.95,7.99-2.7-4.04c-.54-.8-1.18-1.28-1.94-1.42-.75-.14-1.52.05-2.3.57-.93.62-1.45,1.35-1.53,2.16-.08.82.15,1.63.7,2.46.55.83,1.37,1.57,2.45,2.23,1.08.66,2.7,1.17,4.84,1.54l11.13,1.98c2.22.39,4.38.92,6.47,1.59s4.12,1.74,6.08,3.18c1.96,1.44,3.86,3.53,5.69,6.27,3.68,5.52,5.55,10.53,5.61,15.02.05,4.49-2.44,8.42-7.5,11.79Z"/>
        <path class="cls-3" d="M219.55,99.35l-28.6-64.63,25.86-11.44,5.57,12.59-12.86,5.69,4.55,10.29,12.19-5.4,5.51,12.45-12.19,5.4,12.97,29.3-13,5.75Z"/>
        <path class="cls-3" d="M262.78,82.24l-19.31-67.99,13.13-3.73,19.31,67.99-13.13,3.73Z"/>
        <path class="cls-3" d="M301.33,73.13l-7.97-56.54-8.31,1.17-1.89-13.44,30.62-4.31,1.9,13.44-8.31,1.17,7.97,56.54-13.99,1.97Z"/>
        <path class="cls-3" d="M375.28,70.1L385.89.23l18.46,2.8c3.87.59,6.8,1.91,8.8,3.98,2,2.06,3.25,4.76,3.75,8.08.49,3.33.41,7.19-.26,11.58-.64,4.23-1.61,7.86-2.91,10.87-1.3,3.01-3.13,5.22-5.5,6.62-2.36,1.4-5.48,1.8-9.35,1.22l-5.67-.86-4.2,27.67-13.74-2.08ZM395.12,31.97l.79.12c2.6.39,4.29-.09,5.09-1.46.8-1.37,1.42-3.47,1.85-6.3.4-2.65.43-4.74.08-6.26-.35-1.53-1.59-2.45-3.7-2.78l-1.55-.23-2.57,16.91Z"/>
        <path class="cls-3" d="M426.85,79.78l23.22-66.76,20.49,7.13c3.41,1.18,5.72,2.86,6.92,5.02,1.2,2.16,1.62,4.74,1.24,7.74-.38,3-1.22,6.39-2.53,10.15-1.26,3.64-2.74,6.39-4.42,8.24-1.68,1.86-3.94,2.76-6.79,2.7,1.95,1.16,3.06,2.72,3.33,4.67.28,1.95-.05,4.24-.96,6.87l-8.78,25.26-13.16-4.58,9.09-26.13c.68-1.95.7-3.3.07-4.04-.64-.74-1.84-1.43-3.61-2.04l-10.59,30.46-13.5-4.69ZM455.05,42.47l3.22,1.12c1.85.64,3.47-1.05,4.87-5.07.9-2.61,1.3-4.38,1.17-5.33-.13-.95-.74-1.62-1.86-2l-3.11-1.08-4.3,12.36Z"/>
        <path class="cls-3" d="M476.17,99.03l34.46-61.71,24.69,13.78-6.66,11.92-12.13-6.77-6.72,12.03,11.64,6.5-6.48,11.61-11.64-6.5-7.89,14.13,12.94,7.22-6.72,12.02-25.49-14.23Z"/>
        <path class="cls-3" d="M529.63,134.67c-5.01-4.06-7.61-8.24-7.81-12.53-.19-4.29,1.92-9.16,6.34-14.61l4.35-5.37,10.86,8.8-5.57,6.86c-1.03,1.27-1.64,2.42-1.84,3.45-.2,1.03.19,1.93,1.14,2.71.99.81,1.92,1.08,2.78.81.85-.27,1.82-1.07,2.9-2.4,1.37-1.68,2.34-3.23,2.93-4.63.59-1.4.89-2.95.9-4.65.02-1.7-.15-3.82-.49-6.37l-1.14-8.67c-.86-6.46.51-11.92,4.14-16.39,3.79-4.68,7.77-7.36,11.94-8.06,4.16-.69,8.3.63,12.42,3.97,5.03,4.08,7.52,8.32,7.45,12.71-.07,4.39-2.31,9.33-6.75,14.8l-11.17-9.05,3.06-3.77c.61-.75.86-1.51.77-2.27-.09-.76-.5-1.44-1.22-2.03-.87-.71-1.71-.98-2.51-.82-.8.16-1.52.62-2.14,1.39-.63.77-1.09,1.77-1.4,3-.31,1.23-.32,2.93-.04,5.09l1.41,11.21c.29,2.24.42,4.45.4,6.66s-.44,4.45-1.23,6.75c-.8,2.3-2.23,4.73-4.31,7.29-4.18,5.16-8.4,8.43-12.68,9.81-4.27,1.38-8.76.16-13.49-3.67Z"/>
        <path class="cls-3" d="M559.95,162.22l42.95-37.63-5.53-6.31,10.21-8.95,20.37,23.26-10.21,8.95-5.53-6.31-42.95,37.63-9.32-10.63Z"/>
        <path class="cls-3" d="M585.01,193.61l59.12-38.74,7.48,11.42-59.11,38.74-7.48-11.42Z"/>
        <path class="cls-3" d="M608.15,235.45c-4.19-9.18.29-16.77,13.44-22.78l27.73-12.66c12-5.48,20.41-2.96,25.21,7.56,1.98,4.34,2.63,8.06,1.94,11.16-.68,3.11-2.49,5.87-5.43,8.26s-6.8,4.69-11.6,6.89l-5.74-12.57,5.7-2.6c1.39-.63,2.46-1.35,3.23-2.16.76-.81.88-1.8.33-2.99-.68-1.49-1.63-2.24-2.84-2.26-1.21-.02-2.42.25-3.61.79l-31.16,14.22c-1.73.79-3.04,1.66-3.91,2.6-.88.94-1.02,2.08-.42,3.39.63,1.37,1.58,2.02,2.87,1.98,1.29-.04,2.82-.47,4.6-1.28l9.17-4.18-1.57-3.43,11.11-5.07,7.17,15.71-37.45,17.09-2.35-5.15,4.41-4.66c-5.02-.42-8.63-3.04-10.83-7.86Z"/>
        <path class="cls-3" d="M623.07,271.49l68.45-17.62,7.05,27.37-13.22,3.41-3.47-13.46-13.34,3.43,3.32,12.91-12.87,3.31-3.32-12.91-15.68,4.04,3.69,14.35-13.34,3.44-7.28-28.27Z"/>
      </g>
      <circle class="cls-2" cx="351.63" cy="364.88" r="219.78"/>
      <circle class="cls-1" cx="351.63" cy="364.88" r="244.64"/>
      <circle class="cls-3" cx="23.34" cy="363.23" r="11.02"/>
      <circle class="cls-3" cx="668.78" cy="363.23" r="11.02"/>
      <g>
        <path d="M374.61,339.09c-17.56-14.83-71.3-13.7-96.29-13.19-13.31.27-25.9.94-39.82.28,17.29-7.94,34.21-13.19,51.26-19.71l35.57-13.59,15.75-8.06c3.5-1.79,6.18-4.78,8.5-7.87,7.68-10.23-17.87-16.94-29.91-18.2-25.23-2.64-50.61-1.34-75.35,4.28-14.88,2.99-27.49,8.76-41.78,15.92,24.95-27.81,61.73-41.8,98.21-45.57,21.51-2.22,46.1-2.61,66.13,5.2,8.81,3.43,16.39,8.34,22.99,15.06,5.61,5.71,12.48,8.72,20.51,9.28,15.72,1.11,30.57-2.96,44.46-10.18,13.01-6.76,23.64-15.42,33.07-27.62-2.72,8.15-7.44,15.06-12.7,21.56-9.2,11.36-20.83,19.84-33.89,26.3-21.03,10.41-41.74,12.29-60.13,23.41l-13.78,8.33c13.35,1.49,28.13,3.91,39.2,11.93,8.85,6.41,11.88,17.52,7.58,27.52-2.35,5.47-5.94,9.9-10.55,13.8-8.22,6.95-17.23,12.65-27.02,17.27l-20.15,9.5c-13.01,6.14-24.72,13.36-37.2,21.52,7.15-10.97,16.35-19.03,25.91-27.01l24.74-20.67c2.64-2.21,4.74-4.95,6.51-7.74,2.58-4.07,1.9-8.63-1.81-11.76Z"/>
        <path d="M255.01,482.76c-4.82,6.53-10.26,11.67-16.27,16.83-11.55,9.9-23.4,18.83-36.65,27.58l30.59-73.33,36.82-88.76c6.14-14.81,18.5-24.88,34.44-27.62,10.84-1.86,21.65-1.73,33.08-.52l-6.74,5.23c-4.85,5.46-8.41,11.49-11.58,18.1l-19.16,40-24.57,49.86c-5.7,11.56-12.19,22.1-19.97,32.64Z"/>
        <path d="M352.53,426.47l-37.79-.65c8.12-7.02,16.02-12.1,24.67-16.89,19.4-10.74,34.83-7.05,53.87-12.73,9.89-2.94,18.94-7.31,26.74-13.93,8.2-6.95,14.54-15.31,17.77-25.54,3.37-10.66,2.06-21.92-4.11-31.12-5.67-8.46-13.5-13.38-23.23-17.3l15.3-1.09c7.5-.54,14.91,1,22.1,3.13,24.96,7.42,35.95,29.36,27.85,54.15-7.67,23.45-25.76,40.32-48.22,50.06-23.66,10.25-48.71,12.36-74.95,11.9Z"/>
        <path d="M431.29,245.82c-5.61,4.15-12.4,5.23-18.77,2.16-5.33-2.57-9.46-8.08-10.13-14.93-.92-9.36,4.34-18.34,12.67-22.71,6.22-3.26,12.99-2.84,18.82,1.03,5.15,3.42,8.03,9.69,7.62,16.57-.43,7.16-4.24,13.48-10.2,17.88Z"/>
      </g>
      <g>
        <g>
          <path class="cls-3" d="M20.93,427.23c-.09-.34.04-.55.38-.64l21.45-5.53c.34-.09.55.04.64.38l4.38,17c.75,2.92.72,5.13-.1,6.65-.82,1.52-2.33,2.56-4.55,3.13l-1.48.38c-1.64.42-3,.48-4.09.16-1.08-.32-1.99-1.04-2.73-2.17-.74-1.13-1.38-2.78-1.94-4.94l-3.13-12.15c-.09-.34-.3-.46-.64-.38l-6.72,1.73c-.34.09-.55-.04-.64-.38l-.84-3.24ZM36.44,440.36c.42,1.64.93,2.77,1.52,3.4.59.62,1.37.81,2.33.57l1.48-.38c1.12-.29,1.88-.77,2.27-1.46.39-.69.39-1.8,0-3.33l-3.22-12.51c-.09-.34-.3-.46-.64-.38l-6.41,1.65c-.34.09-.46.3-.38.64l3.04,11.8Z"/>
          <path class="cls-3" d="M33.38,469.72c-.98-2.59-1.46-4.67-1.44-6.25.02-1.58.54-2.87,1.57-3.88s2.67-1.94,4.94-2.8l4.04-1.53c2.57-.97,4.58-1.43,6.04-1.36,1.46.06,2.73.74,3.79,2.04s2.19,3.49,3.36,6.58l2.38,6.26c1.17,3.07,1.78,5.45,1.84,7.13.06,1.69-.43,3.04-1.48,4.06-1.05,1.02-2.86,2.01-5.43,2.99l-4.04,1.53c-2.26.86-4.11,1.25-5.55,1.18s-2.69-.69-3.75-1.86c-1.06-1.17-2.08-3.04-3.07-5.63l-3.21-8.45ZM40.21,476.8c.57,1.51,1.13,2.59,1.68,3.25.55.65,1.22,1.01,2.02,1.07.8.06,1.88-.17,3.23-.69l4.98-1.89c1.81-.69,2.92-1.52,3.33-2.49.41-.97.27-2.37-.42-4.18l-3.67-9.66c-.69-1.81-1.51-2.95-2.46-3.41s-2.33-.35-4.14.34l-4.98,1.89c-1.36.52-2.32,1.06-2.88,1.63s-.83,1.29-.8,2.16c.03.87.33,2.06.9,3.56l3.19,8.41Z"/>
          <path class="cls-3" d="M47.95,504.04c-.15-.28-.13-.57.08-.87l14.43-20c.07-.1.13-.16.17-.19.14-.08.28,0,.41.24l1.8,3.29c.18.33.15.62-.08.87l-12.2,16.49.33.6,19.79-2.56c.35-.04.6.09.75.37l2.07,3.79c.17.31.13.58-.1.83l-12.88,15.25.35.64,20.45-1.35c.36-.01.62.12.77.41l1.8,3.3c.18.33.09.5-.27.52l-24.62,1.29c-.36.01-.62-.12-.77-.41l-2.47-4.54c-.15-.28-.12-.56.1-.83l11.75-14.12c.12-.12.16-.21.13-.26-.03-.05-.12-.06-.29-.03l-18.25,2.18c-.33.06-.59-.06-.75-.37l-2.47-4.54Z"/>
          <path class="cls-3" d="M71.23,543.71c-.21-.28-.17-.53.11-.73l17.89-13.06c.28-.21.53-.17.73.11l13.42,18.38c.21.28.17.53-.12.73l-2.08,1.52c-.28.21-.53.17-.73-.11l-10.78-14.76c-.21-.28-.45-.32-.73-.11l-3.94,2.88c-.28.21-.32.45-.11.73l10.23,14.02c.21.28.17.53-.11.73l-1.96,1.43c-.28.21-.53.17-.73-.11l-10.23-14.01c-.21-.28-.45-.32-.73-.11l-4.43,3.24c-.28.21-.32.45-.11.73l10.88,14.89c.21.28.17.53-.12.73l-2.09,1.52c-.28.21-.53.17-.73-.11l-13.52-18.51Z"/>
          <path class="cls-3" d="M91.37,570.41c-.23-.26-.22-.51.04-.74l16.46-14.83c.26-.23.51-.22.74.04l12.07,13.4c2.02,2.24,3.01,4.21,2.98,5.93s-.88,3.32-2.54,4.81l-1.26,1.13c-1.28,1.15-2.54,1.77-3.77,1.85-1.23.08-2.61-.46-4.13-1.63-.27-.22-.43-.16-.47.2l-1.6,9.8-.1.25c-.08.07-.19.03-.34-.13l-2.84-3.15c-.25-.28-.34-.58-.27-.9l1.53-9.15c.07-.32-.02-.62-.27-.9l-7.32-8.12c-.23-.26-.48-.27-.74-.04l-5.22,4.7c-.26.23-.51.22-.74-.04l-2.24-2.49ZM111.52,575.23c1.13,1.26,2.11,2.03,2.92,2.31.81.28,1.59.09,2.33-.58l1.14-1.03c.86-.77,1.3-1.56,1.34-2.34.03-.79-.48-1.77-1.55-2.95l-8.97-9.95c-.23-.26-.48-.27-.74-.04l-4.92,4.43c-.26.23-.27.48-.04.74l8.48,9.41Z"/>
          <path class="cls-3" d="M160.75,633.16c-.27-.17-.39-.44-.36-.8l2.74-24.5c.01-.12.03-.2.06-.25.08-.14.24-.13.47,0l3.18,1.99c.32.2.44.46.36.8l-2.53,20.35.58.36,15.98-11.96c.29-.2.57-.22.84-.05l3.66,2.29c.3.19.41.44.33.77l-3.72,19.61.62.38,17.14-11.23c.31-.19.6-.2.87-.03l3.18,1.99c.32.2.33.39.02.58l-20.81,13.22c-.31.19-.6.2-.87.03l-4.38-2.74c-.27-.17-.38-.43-.33-.77l3.29-18.07c.04-.17.04-.26,0-.29-.05-.03-.13.01-.27.12l-14.82,10.87c-.26.22-.54.23-.84.05l-4.38-2.74Z"/>
          <path class="cls-3" d="M200.52,656.26c-.32-.14-.41-.38-.26-.69l9.16-20.17c.14-.32.38-.41.69-.26l20.73,9.41c.32.14.41.38.26.69l-1.07,2.35c-.14.32-.38.4-.69.26l-16.65-7.55c-.32-.14-.55-.06-.69.26l-2.02,4.45c-.14.32-.06.55.26.69l15.8,7.17c.32.14.41.38.26.69l-1,2.2c-.14.32-.38.41-.69.26l-15.8-7.17c-.32-.15-.55-.06-.69.26l-2.27,5c-.14.32-.06.55.26.69l16.79,7.62c.32.14.41.38.26.69l-1.07,2.35c-.14.32-.38.41-.69.26l-20.87-9.47Z"/>
          <path class="cls-3" d="M231.17,669.53c-.33-.11-.44-.33-.33-.67l7.14-20.97c.11-.33.33-.44.67-.33l3.25,1.11c.33.11.44.34.33.67l-5.92,17.38c-.11.33,0,.55.33.67l17.08,5.81c.33.11.44.33.33.67l-.88,2.6c-.11.33-.33.44-.67.33l-21.32-7.26Z"/>
          <path class="cls-3" d="M261.54,679.3c-.34-.08-.47-.29-.39-.63l5.1-21.56c.08-.34.29-.47.63-.39l3.34.79c.34.08.47.29.39.63l-4.23,17.87c-.08.34.05.55.39.63l17.55,4.16c.34.08.47.29.39.63l-.63,2.67c-.08.34-.29.47-.63.39l-21.91-5.19Z"/>
          <path class="cls-3" d="M292.94,686.33c-.35-.04-.5-.24-.46-.59l2.73-21.99c.04-.35.24-.5.59-.46l6.21.77c.35.04.63.2.84.47l14.32,20.61c.21.27.48.42.8.46h.08c.35.05.54-.1.58-.45l2.26-18.18c.04-.35.24-.5.58-.46l3.28.41c.35.04.5.24.46.59l-2.73,21.95c-.04.35-.24.5-.58.46l-6.33-.79c-.32-.04-.59-.19-.8-.47l-14.24-20.52c-.21-.3-.46-.46-.75-.5l-.12-.02c-.35-.04-.54.11-.58.46l-2.26,18.18c-.04.35-.24.5-.59.46l-3.28-.41Z"/>
          <path class="cls-3" d="M333.35,690.52c-.35,0-.52-.18-.52-.53l.31-22.15c0-.35.18-.52.53-.52l22.76.32c.35,0,.52.18.52.53l-.04,2.58c0,.35-.18.52-.53.52l-18.28-.26c-.35,0-.53.17-.53.52l-.07,4.88c0,.35.17.53.52.53l17.35.24c.35,0,.52.18.52.53l-.03,2.42c0,.35-.18.52-.53.52l-17.35-.24c-.35,0-.53.17-.53.52l-.08,5.49c0,.35.17.53.52.53l18.44.26c.35,0,.52.18.52.53l-.04,2.58c0,.35-.18.52-.53.52l-22.92-.32Z"/>
          <path class="cls-3" d="M372.79,690.07c-2.79.24-4.83-.06-6.11-.89-1.29-.83-2.02-2.16-2.21-3.98l-.13-1c-.03-.35.13-.54.48-.57l3.42-.29c.35-.03.54.13.57.48l.06.72c.07.8.38,1.38.94,1.72.56.34,1.42.46,2.6.36l9.81-.85c1.47-.13,2.57-.34,3.29-.63.72-.29,1.17-.67,1.36-1.15.19-.47.25-1.13.18-1.96-.09-1.07-.43-1.83-1.01-2.26-.58-.44-1.67-.6-3.28-.49l-11.2.76c-2.69.18-4.62-.23-5.82-1.22-1.19-.99-1.88-2.53-2.06-4.62-.39-4.53,2.5-7.06,8.66-7.59l7.96-.69c3.4-.29,5.84-.03,7.3.79,1.46.82,2.27,2.14,2.43,3.96l.06.72c.03.35-.13.54-.48.57l-3.46.3c-.35.03-.54-.13-.57-.48l-.04-.48c-.07-.78-.38-1.34-.94-1.7-.56-.36-1.52-.48-2.89-.36l-9.61.83c-1.53.13-2.6.48-3.21,1.05-.61.57-.87,1.41-.77,2.54.07.78.22,1.37.46,1.76.24.4.65.68,1.23.85.58.17,1.42.22,2.52.15l11.08-.67c1.99-.12,3.55.01,4.67.39,1.13.38,1.94.99,2.45,1.85.51.86.82,2.03.95,3.5.15,1.69,0,3.05-.46,4.09-.45,1.04-1.28,1.85-2.48,2.42s-2.89.96-5.07,1.15l-10.69.92Z"/>
          <path class="cls-3" d="M407.67,685.82c-2.75.53-4.8.45-6.17-.25-1.37-.69-2.24-1.94-2.61-3.73l-.23-.98c-.07-.34.07-.55.42-.61l3.37-.65c.34-.07.55.07.61.42l.14.71c.15.79.52,1.33,1.11,1.61.59.28,1.46.31,2.63.09l9.67-1.86c1.45-.28,2.52-.6,3.2-.97.68-.36,1.09-.79,1.23-1.29.14-.49.13-1.15-.03-1.97-.2-1.06-.62-1.77-1.24-2.15-.62-.37-1.73-.42-3.32-.14l-11.05,1.93c-2.65.46-4.62.25-5.91-.61-1.29-.86-2.13-2.32-2.53-4.38-.86-4.46,1.75-7.28,7.82-8.45l7.84-1.51c3.36-.65,5.8-.64,7.34.02,1.54.66,2.48,1.89,2.83,3.69l.14.71c.07.34-.07.55-.42.61l-3.41.66c-.34.07-.55-.07-.61-.42l-.09-.48c-.15-.77-.52-1.3-1.11-1.59s-1.56-.32-2.91-.06l-9.47,1.83c-1.51.29-2.53.75-3.08,1.38-.55.63-.72,1.49-.51,2.6.15.77.36,1.33.64,1.71.28.37.71.61,1.31.71.6.1,1.44.07,2.53-.12l10.95-1.82c1.96-.32,3.53-.36,4.69-.1,1.16.26,2.04.79,2.63,1.59.59.8,1.03,1.93,1.31,3.38.32,1.66.31,3.04-.03,4.12-.34,1.08-1.08,1.97-2.22,2.67-1.14.7-2.78,1.26-4.92,1.67l-10.54,2.03Z"/>
          <path class="cls-3" d="M489.27,660.29c-2.14,1.02-3.93,1.56-5.38,1.61-1.45.05-2.71-.39-3.78-1.32-1.07-.93-2.1-2.43-3.09-4.5l-2.12-4.44c-1.02-2.14-1.56-3.91-1.62-5.31-.06-1.4.48-2.71,1.62-3.91,1.14-1.2,3.07-2.45,5.79-3.75l7.36-3.51c2.33-1.11,4.21-1.77,5.63-1.97s2.57,0,3.44.59c.87.6,1.66,1.64,2.36,3.12l.42.87c.15.32.07.55-.25.7l-3.02,1.44c-.32.15-.55.07-.7-.25l-.37-.76c-.41-.85-.97-1.36-1.69-1.52-.72-.16-1.86.13-3.41.87l-9.36,4.47c-1.12.53-1.94,1.08-2.46,1.64-.52.56-.78,1.23-.79,2.01,0,.78.28,1.75.83,2.91l2.28,4.77c.67,1.41,1.3,2.38,1.89,2.92.58.54,1.31.75,2.18.64.87-.12,2.09-.55,3.67-1.31l7.83-3.74c1.24-.59,2.15-1.13,2.74-1.62.59-.49.92-.98.99-1.48.08-.5-.04-1.06-.34-1.69l-.5-1.06c-.15-.31-.07-.55.25-.7l3.13-1.5c.32-.15.55-.07.7.25l.35.73c.79,1.65,1.16,3.05,1.11,4.21-.04,1.16-.5,2.17-1.38,3.05-.88.88-2.24,1.76-4.08,2.64l-10.23,4.89Z"/>
          <path class="cls-3" d="M523.26,642.34c-2.35,1.47-4.3,2.35-5.85,2.63-1.55.29-2.92.02-4.11-.79-1.19-.81-2.42-2.24-3.71-4.3l-2.29-3.66c-1.45-2.33-2.29-4.21-2.51-5.66-.22-1.45.2-2.82,1.26-4.12,1.06-1.3,3-2.82,5.8-4.58l5.68-3.55c2.78-1.74,5-2.8,6.64-3.2,1.64-.39,3.06-.17,4.27.66,1.2.83,2.53,2.42,3.99,4.74l2.29,3.66c1.28,2.05,2.03,3.79,2.24,5.22s-.16,2.77-1.09,4.04c-.94,1.27-2.58,2.64-4.93,4.1l-7.67,4.79ZM528.87,634.27c1.37-.86,2.32-1.62,2.86-2.28.53-.67.75-1.4.65-2.19-.1-.79-.53-1.81-1.3-3.04l-2.82-4.52c-1.03-1.64-2.06-2.57-3.09-2.78s-2.37.2-4.02,1.22l-8.76,5.47c-1.64,1.03-2.6,2.05-2.86,3.07-.27,1.02.12,2.35,1.14,4l2.82,4.52c.77,1.23,1.49,2.07,2.16,2.5.67.44,1.43.56,2.27.36s1.95-.72,3.32-1.58l7.63-4.77Z"/>
          <path class="cls-3" d="M548.16,626.19c-.27.22-.52.2-.74-.07l-14.1-17.14c-.22-.27-.2-.52.07-.74l5.64-4.64c.25-.21.55-.26.91-.17l18.9,6.71c.15.05.25.05.32,0,.08-.07.11-.18.09-.34l-2.92-19.86c-.06-.33.04-.61.31-.83l5.64-4.64c.27-.22.52-.2.74.07l14.1,17.14c.22.27.2.52-.07.74l-2.49,2.05c-.27.22-.52.2-.74-.07l-11.64-14.15c-.22-.27-.47-.29-.74-.07l-.44.36c-.27.22-.38.51-.34.86l3.14,21.35c.04.35-.07.63-.34.86l-1.71,1.41c-.27.22-.57.28-.91.17l-20.34-7.19c-.33-.11-.64-.05-.91.17l-.44.36c-.27.22-.29.47-.07.74l11.64,14.15c.22.27.2.52-.07.74l-2.49,2.05Z"/>
          <path class="cls-3" d="M585.82,594.05c-.24.26-.48.27-.74.04l-16.45-14.9c-.26-.23-.27-.48-.04-.74l4.9-5.41c.22-.24.51-.34.87-.3l19.68,3.88c.15.03.26.02.31-.04.07-.08.09-.19.04-.34l-5.78-19.23c-.11-.32-.05-.61.19-.87l4.9-5.41c.23-.26.48-.27.74-.04l16.45,14.9c.26.23.27.48.04.74l-2.17,2.39c-.23.26-.48.27-.74.04l-13.58-12.3c-.26-.23-.51-.22-.74.04l-.38.42c-.24.26-.31.56-.21.9l6.22,20.66c.09.34.02.64-.21.9l-1.49,1.65c-.24.26-.53.36-.87.3l-21.18-4.15c-.35-.06-.64.04-.87.3l-.38.42c-.24.26-.22.51.04.74l13.58,12.3c.26.23.27.48.04.74l-2.17,2.39Z"/>
          <path class="cls-3" d="M622.87,549.97c-1.49,2.14-2.88,3.6-4.16,4.38-1.28.78-2.58,1.02-3.89.71-1.31-.31-2.85-1.07-4.62-2.3l-11.46-7.97c-.29-.2-.33-.44-.13-.73l1.96-2.82c.2-.29.44-.33.73-.13l11.33,7.88c1.24.86,2.23,1.37,2.99,1.54.75.17,1.46,0,2.13-.51.66-.5,1.47-1.44,2.42-2.81l4.06-5.83c.95-1.37,1.55-2.45,1.79-3.25.24-.8.16-1.52-.26-2.17-.42-.65-1.24-1.4-2.48-2.27l-11.33-7.88c-.29-.2-.33-.44-.13-.73l1.93-2.78c.2-.29.44-.33.73-.13l11.46,7.98c1.77,1.23,3.02,2.41,3.76,3.53.74,1.12.97,2.42.7,3.88-.28,1.46-1.16,3.26-2.66,5.41l-4.88,7.02Z"/>
          <path class="cls-3" d="M638.67,526.13c-.17.31-.4.38-.71.21l-19.53-10.47c-.31-.17-.38-.4-.21-.71l2.96-5.51c.17-.31.41-.51.74-.61l24.38-5.93c.33-.1.57-.29.72-.58l.04-.07c.17-.31.09-.54-.21-.71l-16.15-8.66c-.31-.17-.38-.4-.21-.71l1.56-2.92c.17-.31.4-.38.71-.21l19.49,10.45c.31.17.38.4.21.71l-3.01,5.62c-.15.28-.39.48-.72.58l-24.27,5.9c-.35.09-.6.26-.74.52l-.06.11c-.17.31-.09.55.21.71l16.15,8.66c.31.17.38.4.21.71l-1.56,2.92Z"/>
          <path class="cls-3" d="M656.79,490.28c-.14.32-.37.41-.69.27l-20.31-8.84c-.32-.14-.41-.37-.27-.69l1.37-3.14c.14-.32.37-.41.69-.27l20.31,8.84c.32.14.41.37.27.69l-1.37,3.15Z"/>
          <path class="cls-3" d="M666.24,466.42c-.11.33-.34.44-.67.32l-17.2-5.96c-.33-.11-.55,0-.67.32l-3.82,11.02c-.12.33-.34.44-.67.32l-2.75-.95c-.33-.11-.44-.34-.32-.67l9.44-27.22c.11-.33.34-.44.67-.32l2.75.95c.33.11.44.34.32.67l-3.82,11.02c-.12.33,0,.55.32.67l17.2,5.96c.33.11.44.34.32.67l-1.11,3.2Z"/>
          <path class="cls-3" d="M676.67,430.52c-.08.34-.29.47-.63.4l-7.01-1.58c-.34-.08-.66-.02-.95.16l-16.74,9.46c-.13.08-.22.12-.27.1-.08-.02-.09-.13-.05-.34l1.06-4.68c.07-.31.25-.56.54-.75l11.33-6.42c.29-.18.47-.44.55-.79l.02-.08c.08-.34.02-.66-.16-.95l-7.52-10.51c-.18-.29-.24-.59-.17-.91l1.03-4.57c.08-.37.22-.41.4-.12l10.99,15.47c.16.26.43.43.79.51l7.12,1.61c.34.08.47.29.4.63l-.75,3.35Z"/>
        </g>
        <circle class="cls-3" cx="135.44" cy="606.78" r="6.59"/>
        <circle class="cls-3" cx="450.69" cy="661.52" r="6.59"/>
      </g>
    </g>
  </g>
</svg>